<svg xmlns="http://www.w3.org/2000/svg" xmlns:xlink="http://www.w3.org/1999/xlink" id="Layer_1" version="1.1" viewBox="0 0 1086 1028"><defs><clipPath id="clippath"><circle cx="544.8" cy="522.3" r="267.4" fill="none"/></clipPath><style>.st1{fill:#557fb4}.st2{fill:#fff}.st3,.st4{fill:#f69245}</style></defs><g><circle cx="548.5" cy="519.5" r="448.5" class="st2"/><path d="M548.5 988c-63.2 0-124.6-12.4-182.4-36.8-55.8-23.6-105.9-57.4-148.9-100.4s-76.8-93.1-100.4-148.9C92.4 644.1 80 582.8 80 519.5s12.4-124.6 36.8-182.4c23.6-55.8 57.4-105.9 100.4-148.9 43-43 93.1-76.8 148.9-100.4C423.9 63.4 485.2 51 548.5 51s124.6 12.4 182.4 36.8c55.8 23.6 105.9 57.4 148.9 100.4 43 43 76.8 93.1 100.4 148.9 24.4 57.8 36.8 119.1 36.8 182.4s-12.4 124.6-36.8 182.4c-23.6 55.8-57.4 105.9-100.4 148.9-43 43-93.1 76.8-148.9 100.4-57.8 24.4-119.1 36.8-182.4 36.8Zm0-897c-57.9 0-114 11.3-166.8 33.7-51 21.6-96.9 52.5-136.2 91.8-39.4 39.4-70.3 85.2-91.8 136.2-22.3 52.8-33.7 108.9-33.7 166.8s11.3 114 33.7 166.8c21.6 51 52.5 96.9 91.8 136.2s85.2 70.3 136.2 91.8c52.8 22.3 108.9 33.7 166.8 33.7s114-11.3 166.8-33.7c51-21.6 96.9-52.5 136.2-91.8 39.4-39.4 70.3-85.2 91.8-136.2 22.3-52.8 33.7-108.9 33.7-166.8s-11.3-114-33.7-166.8c-21.6-51-52.5-96.9-91.8-136.2-39.4-39.4-85.2-70.3-136.2-91.8C662.5 102.4 606.4 91 548.5 91Z" class="st2"/></g><path d="M112.9 425H280s-30 158 24.5 229.2c55.5 72.5 165.5 193.3 291.4 129 125.9-64.3 208.4-129 208.6-194.6.3-65.6 5.4-163.6 5.4-163.6h167s11.4 74 10.9 99c0 0-.9 46.7-11.1 92.6C941.8 774.4 820.8 869 820.8 869c-163.9 134-364.5 85.5-386 80-14.3-3.6-192.2-53-280-219-51-96.4-56.5-197.8-52-208 .2-.4 10-97 10-97Z" class="st3"/><path d="M544.8 80.9c59.2 0 116.6 11.6 170.7 34.5 52.2 22.1 99.1 53.7 139.4 94 40.3 40.3 71.9 87.2 94 139.4 22.9 54.1 34.5 111.5 34.5 170.7s-11.6 116.6-34.5 170.7c-22.1 52.2-53.7 99.1-94 139.4-40.3 40.3-87.2 71.9-139.4 94-54.1 22.9-111.5 34.5-170.7 34.5s-116.6-11.6-170.7-34.5c-52.2-22.1-99.1-53.7-139.4-94-40.3-40.3-71.9-87.2-94-139.4-22.9-54.1-34.5-111.5-34.5-170.7s11.6-116.6 34.5-170.7c22.1-52.2 53.7-99.1 94-139.4 40.3-40.3 87.2-71.9 139.4-94 54.1-22.9 111.5-34.5 170.7-34.5m0-10c-247.7 0-448.5 200.8-448.5 448.5s200.8 448.5 448.5 448.5 448.5-200.8 448.5-448.5S792.5 70.9 544.8 70.9Z" class="st1"/><g><circle cx="544.8" cy="522.3" r="267.4" class="st3"/><path d="M544.8 804.7c-75.4 0-146.4-29.4-199.7-82.7s-82.7-124.3-82.7-199.7 29.4-146.4 82.7-199.7 124.3-82.7 199.7-82.7 146.4 29.4 199.7 82.7 82.7 124.3 82.7 199.7-29.4 146.4-82.7 199.7-124.3 82.7-199.7 82.7Zm0-534.8c-67.4 0-130.8 26.3-178.5 73.9-47.7 47.7-73.9 111.1-73.9 178.5s26.3 130.8 73.9 178.5c47.7 47.7 111.1 73.9 178.5 73.9s130.8-26.3 178.5-73.9c47.7-47.7 73.9-111.1 73.9-178.5s-26.3-130.8-73.9-178.5c-47.7-47.7-111.1-73.9-178.5-73.9Z" class="st1"/></g><g><circle cx="544.8" cy="522.3" r="267.4" class="st3"/><path d="M544.8 794.7c-72.8 0-141.2-28.3-192.6-79.8S272.4 595 272.4 522.3s28.3-141.2 79.8-192.6 119.9-79.8 192.6-79.8 141.2 28.3 192.6 79.8 79.8 119.9 79.8 192.6-28.3 141.2-79.8 192.6-119.9 79.8-192.6 79.8Zm0-534.8c-70.1 0-136 27.3-185.6 76.9-49.6 49.6-76.9 115.5-76.9 185.6s27.3 136 76.9 185.6c49.6 49.6 115.5 76.9 185.6 76.9s136-27.3 185.6-76.9c49.6-49.6 76.9-115.5 76.9-185.6s-27.3-136-76.9-185.6c-49.6-49.6-115.5-76.9-185.6-76.9Z" class="st2"/></g><g><path d="m168.8 544.5-.4-7c2.1 0 3.7-.2 6.3-.3l20.4-1.3c2.3-.1 3.8-.2 5.8-.4L202 553c.5 8.6-2.3 11.9-10.5 12.4h-.2c-8.2.5-11.6-2.5-12.2-11-.2-3.2-.5-7.3-.7-10.6l-3.3.2c-2.6.2-4.2.3-6.3.4Zm26.6-1.7-11 .7.6 9.6c.3 4.2 1.7 5.6 5.8 5.3 4.2-.3 5.3-1.9 5.1-6l-.6-9.6ZM197.5 570.6c2.4-.4 4.2-.7 5.8-1l2.9 17.6c1.4 8.3-.7 12.1-8.5 13.4h-.2c-5.3.9-8.7-.2-10.8-4.6-1.3 1.1-2.7 2.2-4.2 3.4-2.1 1.7-4.3 3.5-6.4 5.4l-1.3-7.7c1.5-1.2 3.1-2.5 4.7-3.7l4.9-4-1.5-9.4-4.3.7c-2.6.4-4.4.7-6.2 1.1l-1.1-6.9c1.8-.2 3.7-.6 6.2-1l20-3.3Zm1.1 6.8-9.9 1.6 1.6 9.6c.7 4.2 2.3 5.5 6 4.9 3.6-.6 4.5-2.3 3.8-6.4l-1.6-9.7ZM192.5 606.8l1.4-.4c11.9-3.2 16.7-.4 19.8 11.3 3.2 11.7.6 16.6-11.4 19.8l-1.4.4c-11.9 3.2-16.7.4-19.8-11.3-3.2-11.7-.5-16.6 11.4-19.8Zm7.1 24.1h.4c8.3-2.3 9.7-4.6 7.8-11.6-1.9-6.9-4.4-8.2-12.5-6h-.4c-8.3 2.3-9.7 4.6-7.8 11.6 1.9 7 4.3 8.2 12.5 5.9ZM213.7 640.7c2.2-.8 3.9-1.5 5.5-2.1l8.7 23-5.6 2.1c-1.1-3-2.6-7-4.3-11.6l-1.9-4.9-7.7 2.9 5.5 14.6-5.5 2.1c-.9-2.6-3.5-9.3-4.6-12.3l-.9-2.3-5.8 2.2c-2.4.9-4.2 1.6-5.9 2.3l-2.5-6.6c1.7-.6 3.5-1.3 5.9-2.2l19-7.2ZM224.6 668.7c2.1-1 3.8-1.8 5.3-2.6l10.8 22.5-5.3 2.6c-1.3-2.9-4.5-9.5-6.5-13.6l-1.3-2.7-6.6 3.2 7 14.5-5.1 2.5c-1.1-2.3-3.8-8.1-5.4-11.4l-1.5-3.2-7.1 3.4 1.4 2.9c2.1 4.3 5.2 10.8 6.8 14.1l-5.3 2.6-11.2-23.3c1.6-.7 3.4-1.6 5.7-2.7l18.3-8.8ZM223 704.3l.5-.3 3.7 5.8-.9.5c-2.9 1.7-2.7 3.3 1 9.5 3.3 5.5 4.7 6 7 4.6 2.2-1.3 2.6-2.9-1-10.7-4.5-10-3.8-13 1.7-16.4 5.7-3.4 9.9-2.4 15.5 7 6.3 10.5 5.1 13.9-.8 17.5l-.5.3-3.6-5.8.9-.5c2.3-1.4 2.3-3.2-.9-8.5-3-5-4.5-5.5-6.6-4.2-2.2 1.3-2.4 2.5 1 10 4.6 10.2 3.5 13.7-1.8 16.9-6.1 3.7-9.9 2.8-15.9-7.2-6.5-10.8-6.4-14.4.7-18.6ZM241.6 734.7l.5-.4 4.3 5.4-.8.6c-2.7 2-2.4 3.5 1.9 9.3 3.8 5.2 5.2 5.5 7.4 3.9 2.1-1.5 2.3-3.1-2-10.5-5.4-9.5-5.1-12.6.1-16.5 5.3-4 9.6-3.3 16.2 5.5 7.3 9.9 6.4 13.4.9 17.5l-.5.4-4.2-5.4.8-.6c2.2-1.6 2-3.4-1.7-8.3-3.5-4.7-5-5-7-3.6-2.1 1.5-2.1 2.8 2 9.9 5.6 9.7 4.8 13.3-.2 17-5.7 4.2-9.6 3.8-16.5-5.6-7.5-10.2-7.7-13.7-1.1-18.6ZM277 752.8c1.8-1.5 3.2-2.7 4.5-3.9l4.7 5.5c-1.4 1.1-2.7 2.3-4.5 3.8l-15.4 13.2c-2 1.7-3.4 2.9-4.8 4.1l-4.7-5.5c1.4-1.2 2.8-2.4 4.8-4.1l15.4-13.2ZM277.5 770.7l1-1c8.8-8.7 14.3-8.5 22.8 0 8.5 8.6 8.7 14.1-.1 22.8l-1 1c-8.8 8.7-14.3 8.6-22.8 0s-8.6-14.2.1-22.8Zm18.1 17.4.3-.3c6.1-6 6.2-8.7 1.1-13.8-5.1-5.1-7.9-4.9-13.8 1l-.3.3c-6.1 6-6.2 8.7-1.1 13.8 5.1 5.1 7.8 5 13.8-1ZM299.7 805.6l12.9-15.8c1.5-1.9 2.5-3.1 3.7-4.6l8.5 6.9-3.1 13.6c-1.4 5.4-2.9 11-3.9 14.6l.4.3c3-3.8 7.2-9.1 9-11.2 2.2-2.7 5.2-6.4 7.5-9.3l5.1 4.2c-1.1 1.3-2.2 2.7-3.7 4.5l-12.8 15.8c-1.6 2-2.7 3.3-4 5l-8.3-6.8 3.1-13.9c1.4-5.5 2.6-10.5 3.7-14.6l-.3-.2c-2.8 3.5-6.8 8.6-9.2 11.5-2 2.5-5 6.2-7.3 9.1l-5.1-4.1c1.3-1.6 2.3-2.8 4-4.8ZM361.5 818.8c-1.8 7.1-6.7 27-8.2 33.5l-6.4-4.2 1.7-6.2-12.5-8.2-5 4-6.2-4.1c5.4-3.9 21.8-16.3 27.6-20.8l9.1 6Zm-20.7 11.1 9.4 6.1.9-3.2c1.1-4 2.3-8 3.2-11.3l-1.7-1.1c-2.7 2.2-6 4.9-9.2 7.5l-2.5 2ZM359.3 855.5c.9-1.6 1.8-3.3 3-5.7l9.4-17.8c1.1-2.1 2-3.7 2.7-5.3l6.2 3.3c-.9 1.5-1.7 3.1-2.8 5.1l-9.5 18.1 6.2 3.3c2.8 1.5 5.9 3.1 9.2 4.8l-2.9 5.6-21.6-11.4ZM417.4 882.1 408 879c.3-7.2.8-27.4.8-33.9l7.3 2.4L415 864c-.2 3.8-.5 7.5-.8 10.6l1.1.4c1.6-2.7 3.6-6 5.5-9.3l8.4-13.8 8.8 2.9-1.3 15.5c-.4 4.1-.8 8.1-1.1 11.4l.9.3c1.7-2.6 3.7-5.7 5.7-9l8.9-13.9 7 2.3c-3.8 5.3-15.5 21.9-19.5 27.9l-9.4-3.1 1.4-15.4c.4-4.1.8-8.6 1.2-12.4-2 3.3-4.3 7.1-6.5 10.6l-8.2 13.2ZM455.6 877.8l.3-1.4c2.5-12.1 7.3-15 19.1-12.5 11.9 2.5 15 7 12.5 19.1l-.3 1.4c-2.5 12.1-7.2 15-19.1 12.5-11.8-2.5-15-7.1-12.5-19.1Zm24.8 4.6v-.4c1.8-8.4.5-10.6-6.6-12.1-7-1.5-9.3.2-11 8.4v.4c-1.8 8.4-.4 10.7 6.6 12.2 7.1 1.5 9.2 0 11-8.5ZM493.7 894.8l1.8-20.2c.2-2.4.4-4.2.5-5.9l11.9 1 3.2 13.9c.9 4.2 1.7 8.5 2.4 12 1.3-3.4 2.9-7.5 4.5-11.5l5.5-13.1 11.2 1c-.2 1.7-.3 3.4-.5 5.7l-1.8 20.4c-.2 2.6-.4 4.5-.5 6.3l-7-.6c.4-3.6.7-7.8 1-11.5.2-2.9.9-10 1.4-14.9h-.5c-1.5 3.6-3.3 8-5.1 12.3L516 903l-6.7-.6-3.5-14.1c-1.1-4.6-2.1-9.3-3-13h-.5c-.3 4.3-.8 10.6-1.2 15.2-.3 3.2-.7 7.5-.9 11.2l-6.8-.6c.2-2.1.4-3.7.6-6.3ZM541.6 877.8c0-2.4-.1-4.2-.2-5.9l25-.6v5.9c-3.1 0-10.3.2-14.9.3h-3l.2 7.4 16.1-.4v5.7c-2.4 0-8.8.2-12.5.3h-3.5l.2 8h3.3c4.8-.2 12-.4 15.6-.5v5.9c.1 0-25.7.7-25.7.7 0-1.8 0-3.7-.1-6.3l-.5-20.3ZM575.7 897l-2.5-20.2c-.3-2.4-.5-3.9-.8-5.9l10.9-1.4 7.7 11.6c2.9 4.7 5.9 9.7 7.8 12.9h.5c-.7-4.9-1.6-11.5-1.9-14.3-.4-3.5-1-8.2-1.5-11.8l6.5-.8c.2 1.7.4 3.5.7 5.8l2.5 20.2c.3 2.6.5 4.2.8 6.3l-10.6 1.3-7.9-11.9c-3-4.8-5.8-9.1-8-12.8h-.4c.6 4.5 1.5 10.9 2 14.7.4 3.2 1 7.9 1.5 11.5l-6.5.8c-.2-2.1-.4-3.6-.7-6.2ZM615.7 863.8l1.5 7.3-.8 6-5.2 1 .5-3.9c.1-.6.2-1.3.3-1.9-1.2.2-2.3.5-2.6.6l-1.5-7.5 7.8-1.6ZM625.9 885.9l-.2-.6 6.6-2 .3 1c.9 3.2 2.4 3.5 9.4 1.6 6.2-1.7 7-2.8 6.3-5.5-.7-2.5-2.1-3.2-10.5-2-10.8 1.6-13.6.1-15.3-6.1-1.7-6.4.4-10.2 11-13 11.9-3.2 14.8-1.1 16.6 5.6l.2.6-6.6 1.9-.3-1c-.7-2.6-2.4-3.1-8.4-1.5-5.6 1.5-6.5 2.8-5.9 5.2.7 2.5 1.8 3 9.9 1.8 11.1-1.6 14.1.4 15.7 6.4 1.9 6.9 0 10.3-11.2 13.3-12.2 3.3-15.6 2.2-17.7-5.7ZM676.2 874l-8-18.7c-.9-2.2-1.6-3.8-2.4-5.4l6.4-2.8c.6 1.6 1.3 3.3 2.3 5.5l2.7 6.3 14.8-6.3-2.7-6.3c-.9-2.2-1.6-3.8-2.4-5.4l6.4-2.8c.6 1.6 1.3 3.3 2.3 5.5l8 18.7c1 2.4 1.7 4.1 2.5 5.8l-6.4 2.8c-.7-1.7-1.4-3.4-2.4-5.8l-2.9-6.8-14.8 6.3 2.9 6.8c1 2.4 1.7 4.1 2.5 5.8l-6.4 2.8c-.7-1.7-1.4-3.4-2.4-5.8ZM706.7 850.6l-.7-1.3c-6-10.8-4.4-16.1 6.2-22 10.6-5.9 15.9-4.5 22 6.3l.7 1.3c6 10.8 4.4 16.1-6.2 22-10.6 5.9-16 4.5-22-6.3Zm21.7-12.7-.2-.3c-4.2-7.5-6.7-8.3-13-4.8-6.3 3.5-6.9 6.2-2.8 13.6l.2.3c4.2 7.5 6.7 8.3 13 4.8 6.3-3.5 6.9-6.1 2.7-13.6ZM739.5 832l-.8-1.2c-7.1-10.1-6-15.6 3.7-22.4 9.7-6.8 14.5-6.5 20.4 2l-5.5 4.1c-3.2-4.6-5.3-5.2-11.2-1-5.7 4-6 6.8-1.2 13.7l.2.3c4.9 7 7.6 7.6 13.3 3.5 5.9-4.2 6.1-6.4 2.9-11l5.7-3.8c5.9 8.3 4.6 13-5.1 19.9-9.7 6.8-15.2 6-22.3-4.1ZM763.5 801.1c-1.6-1.8-2.7-3.2-3.9-4.4l5.3-4.6c1.1 1.3 2.3 2.7 3.8 4.5l4.6 5.3 2.9-2.5c-.2-3-.4-5.4-.4-7.5v-9.2l6.3-5.5c0 6.7-.2 14.6-.2 20.6 7.3 1.2 14.6 2.4 21.9 3.4l-6.6 5.8-10.8-1.9c-1.9-.3-4-.7-6.4-1.3l-3 2.6 4.8 5.5c1.7 2 2.9 3.4 4.2 4.8l-5.3 4.6c-1.2-1.4-2.4-2.8-4.1-4.8l-13.3-15.4ZM789.4 778c-1.7-1.6-3-2.9-4.3-4l17.3-18.1 4.3 4.1c-2.2 2.3-7.3 7.6-10.4 10.8l-2.1 2.2 5.3 5 11.1-11.7 4.1 3.9c-1.8 1.8-6.2 6.4-8.7 9.1l-2.4 2.6 5.7 5.4 2.2-2.4c3.3-3.4 8.3-8.6 10.8-11.3l4.3 4.1-17.8 18.7c-1.3-1.3-2.7-2.6-4.5-4.4l-14.7-14ZM830 757.1c-8.1-1.1-18.7-2.3-25.8-3l5-6.3 10.6 1.5c2.5.3 5.1.7 7.7 1.1-1-2.3-2-4.6-2.9-6.9l-4.1-10.1 4.8-6c2.4 6.7 6.1 16.7 8.9 24.2l3.1 2.4c2.1 1.6 3.7 2.9 5.2 4l-4.3 5.5c-1.4-1.2-3.1-2.5-5.2-4.1l-3-2.4ZM862.2 730.2c-1.5-1-3.2-2-5.5-3.3l-17.3-10.3c-2.1-1.2-3.6-2.2-5.1-3l3.6-6 5 3 17.6 10.5 3.6-6.1c1.6-2.8 3.4-5.8 5.3-8.9l5.4 3.2-12.5 21ZM854.4 690.8c-2.1-1-3.8-1.8-5.3-2.5l10.8-22.5 5.3 2.6c-1.4 2.9-4.6 9.4-6.6 13.5l-1.3 2.7 6.6 3.2 7-14.5 5.1 2.5c-1.2 2.3-3.9 8-5.5 11.3l-1.5 3.2 7.1 3.4 1.4-2.9c2.1-4.3 5.2-10.8 6.7-14.1l5.3 2.6-11.2 23.3c-1.6-.8-3.3-1.7-5.7-2.8l-18.3-8.8ZM869 642c7.3.2 27.8.6 34.5.6l-2.7 7.2-6.4-.3-5.2 14.1 5.1 4-2.6 7c-5-4.4-20.8-17.6-26.4-22.3l3.8-10.2Zm15.4 17.8 3.9-10.5-3.3-.2c-4.1-.2-8.3-.4-11.8-.6l-.7 1.9c2.7 2.1 6.1 4.7 9.4 7.3l2.5 2ZM889.5 635l-1.4-.4c-12-3.2-14.6-8-11.6-19.5s6.5-14.5 15.1-12.1l-1.6 6.6c-4-1-5.6 0-7.4 6.9-1.8 6.9-.3 9.2 7.9 11.4h.4c8.4 2.3 10.8 1 12.6-5.8 1.9-7.2 1.3-8.7-3.9-10s-2.8 10.8-2.8 10.8l-5.1-1.4 4.6-17.3c1.4.4 3.1.9 4.2 1.2 10.5 2.8 12 6.9 9 18.4-3 11.5-7.8 14.4-19.7 11.2ZM892.6 566.3l3.4.5c2.4.4 5.6.8 9.6 1.4 10.5 1.6 13.5 5.7 11.7 17.2-1.8 11.5-5.8 14.4-16.4 12.8-3.9-.6-7.2-1.2-9.5-1.5l-3.4-.5c-2.4-.4-4.3-.7-5.8-.9l1.1-6.9c1.6.2 3.6.6 5.8.9l12.6 2c6.7 1 8.6-.5 9.5-6.8 1-6.3-.3-8.4-7-9.4l-12.7-2c-2.2-.3-4.2-.6-5.7-.8l1.1-6.9c1.5.3 3.4.6 5.8.9ZM893.2 559.1c-2.4-.1-4.2-.2-5.9-.3l1.4-25 5.9.3c-.2 3.2-.6 10.5-.9 15l-.2 3 7.3.4.9-16.1 5.7.3c-.2 2.6-.5 8.9-.7 12.6l-.2 3.5 7.9.4.2-3.2c.3-4.8.7-11.9.8-15.6l5.9.3-1.4 25.8c-1.8-.1-3.7-.2-6.3-.4l-20.3-1.1Z" class="st2"/></g><g clip-path="url(#clippath)"><g><path d="M520 695h52c3.7 0 6.6 3 6.6 6.6v18.1c0 3.7-3 6.6-6.6 6.6h-52c-3.7 0-6.6-3-6.6-6.6v-18.1c0-3.7 3-6.6 6.6-6.6ZM423 652.8c4.8 0 9.3-2.7 11.6-6.9 10.1-18.9 37-68.8 37-68.8l-119.4-222c-5.3-9.9-15.6-16-26.8-16h-95l168.8 313.8H423ZM740 355 620.6 577l37 68.8c2.3 4.3 6.7 6.9 11.6 6.9H693l168.8-313.8h-95c-11.2 0-21.5 6.1-26.8 16ZM624.2 352.2l-65.1 121.1 20.2 37.6L671.8 339h-25.5c-9.2 0-17.7 5.1-22.1 13.2Z" class="st2"/><path d="m512.9 559.1-57.1 106.1c-3.8 7.1-11.2 11.5-19.3 11.5H326.2l26.8 49.7h83.3c16.6 0 31.9-9.1 39.8-23.8l57-105.9-20.2-37.6ZM636.3 665.1 468 352.2c-4.4-8.1-12.9-13.2-22.1-13.2h-25.5L616 702.6c7.9 14.7 23.2 23.8 39.8 23.8h83.3l26.8-49.7H655.6c-8.1 0-15.5-4.4-19.3-11.5Z" class="st2"/></g></g><circle cx="213.5" cy="359.5" r="11.5" class="st4"/><circle cx="864.5" cy="356.5" r="11.5" class="st4"/><g><path d="M321.3 288.5c-4.3 3.9-8.1 7.1-11.4 9.6-3.3 2.5-6.3 4.2-9 5.3-2.7 1.1-5.2 1.5-7.6 1.3-2.3-.2-4.7-1.1-6.9-2.7-2.3-1.6-4.7-3.7-7.3-6.5l-.9-1 11.4-11 1.6 1.8c1.3 1.4 2.5 2.4 3.7 2.9 1.2.5 2.6.6 4 .1 1.5-.5 3.3-1.5 5.3-3 2.1-1.6 4.6-3.7 7.7-6.5 2.7-2.5 4.8-4.6 6.3-6.3 1.5-1.7 2.5-3.3 2.9-4.6.4-1.3.4-2.5 0-3.6s-1.1-2.2-2.2-3.4c-1-1.1-2-1.9-3.1-2.3-1.1-.5-2.5-.5-4.1 0-1.7.4-3.8 1.4-6.4 2.9-2.6 1.5-5.9 3.7-9.8 6.5-5.1 3.6-9.5 6.4-13.1 8.2-3.6 1.8-6.8 2.9-9.6 3.1-2.8.2-5.3-.3-7.6-1.6s-4.7-3.3-7.2-6.1c-2.6-2.8-4.5-5.6-5.6-8.4-1.1-2.8-1.4-5.6-.9-8.6.5-2.9 2-6.2 4.5-9.6 2.5-3.5 6-7.3 10.7-11.6 4.2-3.8 7.9-6.8 11.1-9.1 3.2-2.2 6.2-3.7 8.8-4.6 2.6-.9 5-1.1 7.2-.8 2.2.4 4.3 1.3 6.3 2.7 2 1.4 4.1 3.3 6.2 5.6l.9 1-11.3 10.8-1.6-1.7c-1-1.1-2.1-1.9-3.2-2.4a5.5 5.5 0 0 0-3.8 0c-1.4.4-3 1.3-4.9 2.6-1.9 1.3-4.1 3.2-6.8 5.6-2.5 2.3-4.4 4.2-5.7 5.8-1.3 1.6-2.2 3.1-2.6 4.4-.4 1.3-.5 2.4-.1 3.4s1 2 1.9 3.1c1 1.1 2 1.9 3 2.3 1 .5 2.2.5 3.8 0 1.5-.4 3.5-1.4 6-2.8s5.6-3.6 9.4-6.4c5.2-3.7 9.7-6.5 13.6-8.3 3.8-1.8 7.2-2.8 10.1-3 2.9-.2 5.5.4 7.9 1.8 2.4 1.4 4.8 3.4 7.2 6 2.2 2.4 3.9 4.7 5.2 6.9 1.3 2.2 2 4.5 2.1 6.8.1 2.3-.3 4.7-1.4 7.2-1.1 2.5-2.8 5.3-5.3 8.2-2.5 3-5.7 6.2-9.6 9.8ZM331.3 186.4l21.7-12.3c2.1 1.8 4.7 4.1 7.9 6.9 3.2 2.8 6.7 5.9 10.5 9.2 3.8 3.3 7.7 6.8 11.7 10.2 4 3.5 7.9 6.9 11.6 10.1 3.7 3.3 7.2 6.2 10.3 8.9 3.1 2.7 5.6 4.8 7.5 6.5l-15.2 8.7-26.7-24.5c-3.5-3.4-7-6.7-10.5-10-3.5-3.2-6.7-6.3-9.7-9.1-3-2.8-5.5-5.1-7.5-7l9.3 6.9-6.8 3.8-.9-11.7c.5 2.7 1.3 6 2.1 10 .9 4 1.8 8.4 2.9 13 1 4.7 2.1 9.5 3.1 14.4l7.1 35.5-14.8 8.4c-.4-2.5-.9-5.8-1.6-9.8-.7-4-1.4-8.5-2.3-13.4-.8-4.9-1.7-10-2.6-15.3-.9-5.2-1.8-10.4-2.6-15.4-.9-5-1.7-9.6-2.5-13.8-.8-4.2-1.4-7.6-1.9-10.3Zm18.8 58.8-6.5-11.5 44-25 6.5 11.5-44 25ZM417.7 224.4l-.9-3.3c-.3-1.1-.5-2.1-.9-3.2-.3-1.1-.6-2.2-1-3.4-.3-1.2-.7-2.5-1.1-3.9L401 165.7c-.8-2.7-1.4-5-2-6.9-.5-1.9-1.2-3.9-1.9-6.1l24.1-6.9 21.5 23.7c2.4 2.8 4.8 5.6 7.1 8.4 2.3 2.8 4.5 5.4 6.7 8 2.1 2.6 4.1 5 5.9 7.2 1.8 2.2 3.4 4.1 4.7 5.6l-4.7-1.9 7.9-2.2-2.7 6.8c-.6-2.2-1.3-4.6-2.1-7.2-.8-2.6-1.6-5.4-2.5-8.3-.9-2.9-1.7-5.7-2.5-8.5s-1.6-5.3-2.3-7.6c-.7-2.3-1.2-4.2-1.6-5.6-.7-2.6-1.5-5.4-2.4-8.4-.9-3.1-1.7-6.1-2.6-9.2-.9-3.1-1.7-6-2.5-8.6l14.5-4.1c.5 1.9 1 3.9 1.6 5.9.6 2 1.2 4.3 2 7l12.7 44.8c.8 2.9 1.5 5.4 2.1 7.5.6 2.1 1.2 4.3 2 6.5l-23.6 6.7-21.9-24.1c-2.5-2.9-5-5.8-7.4-8.5-2.4-2.7-4.7-5.4-7-8-2.2-2.6-4.3-5-6.3-7.3s-3.8-4.5-5.6-6.6l4.5 4-6.5 1.8 2.6-8.7c.4 1.5 1 3.4 1.7 5.9.7 2.4 1.5 5.2 2.4 8.2.9 3 1.8 6 2.7 9.2.9 3.1 1.8 6.1 2.7 9 .8 2.9 1.6 5.4 2.2 7.6.7 2.4 1.4 5 2.3 7.9.8 2.9 1.7 5.9 2.6 9 .9 3.1 1.8 6 2.5 8.7l-14.4 4.1ZM584.2 129c-.1 1.7-.2 3.7-.3 6 0 2.2-.2 4.7-.3 7.5l-.3 7.9c0 2.1-.1 4.3-.2 6.6 0 2.3-.1 4.7-.2 7.2 0 2.6-.2 5.3-.3 8.1-.2 5-.6 9.3-1.3 12.9-.7 3.7-1.7 6.7-3.1 9.2-1.4 2.5-3.3 4.4-5.7 5.9-2.4 1.5-5.4 2.5-8.9 3.1-3.6.6-7.8.8-12.7.6-6-.2-11-.9-15-2s-7-3-9.2-5.6c-2.2-2.6-3.7-6-4.5-10.4-.8-4.4-1.1-9.9-.9-16.6v-1.2l16 .3v1.7c-.3 3.9-.2 7.1.1 9.6.3 2.5 1 4.5 2 5.9 1 1.4 2.5 2.4 4.4 3 1.9.6 4.4.9 7.4 1 3 .1 5.5 0 7.4-.5 1.9-.5 3.5-1.4 4.6-2.7 1.1-1.4 1.9-3.3 2.4-5.7.5-2.5.8-5.7 1-9.6l1-29.3c0-2.6.2-5 .2-7.2s.1-4.3.1-6.2l16.1.5ZM625.1 214.6c-6.7-1.8-12.2-3.9-16.4-6.2-4.3-2.4-7.4-5.3-9.5-8.8-2.1-3.5-3.1-7.7-3.1-12.6 0-4.9.9-10.8 2.7-17.6l.9-3.2c1.8-6.8 3.9-12.4 6.4-16.7 2.4-4.3 5.4-7.4 8.9-9.4s7.7-3 12.6-3c4.9 0 10.7.9 17.4 2.7 6.8 1.8 12.3 3.9 16.5 6.3 4.3 2.4 7.4 5.3 9.4 8.8 2 3.5 3 7.7 3 12.6 0 4.9-.9 10.8-2.7 17.6l-.9 3.2c-1.8 6.8-3.9 12.4-6.4 16.7-2.4 4.3-5.4 7.4-8.9 9.4s-7.6 3-12.5 3-10.7-.9-17.5-2.7Zm3.6-13.7c4 1.1 7.4 1.6 10.2 1.6 2.8 0 5.1-.6 7.1-1.9 1.9-1.3 3.6-3.4 5-6.3s2.7-6.7 4-11.4l.2-.8c1.3-4.7 2-8.7 2.2-11.9.2-3.2-.2-5.8-1.2-7.9-1-2.1-2.8-3.8-5.2-5.1-2.4-1.3-5.6-2.5-9.6-3.6s-7.4-1.6-10.1-1.5c-2.8 0-5.1.7-7 2-1.9 1.3-3.6 3.4-5 6.2-1.4 2.9-2.7 6.6-4 11.3l-.2.8c-1.3 4.7-2 8.7-2.2 11.9-.2 3.2.2 5.9 1.3 7.9 1 2.1 2.8 3.8 5.1 5.2 2.4 1.4 5.6 2.6 9.6 3.6ZM696.9 243c-5.1-2.7-9.4-5.3-12.8-7.6-3.4-2.3-6.1-4.5-8-6.7-1.9-2.2-3.2-4.4-3.7-6.7-.6-2.3-.5-4.8.2-7.4.7-2.7 2-5.7 3.7-9l.6-1.2 14.2 7.1-1.1 2.1c-.9 1.7-1.4 3.2-1.5 4.5-.1 1.3.3 2.6 1.2 3.9.9 1.2 2.5 2.6 4.6 4 2.2 1.4 5.1 3.1 8.7 5.1 3.2 1.7 5.9 3 8 3.8 2.1.8 3.9 1.2 5.3 1.2s2.5-.4 3.4-1.2c.9-.7 1.7-1.8 2.5-3.2.7-1.3 1.1-2.5 1.2-3.7 0-1.2-.4-2.5-1.3-3.9s-2.6-3.1-4.8-5.1c-2.3-2-5.4-4.3-9.4-7.1-5.1-3.6-9.2-6.8-12.1-9.6-2.9-2.8-5-5.5-6.1-8-1.1-2.6-1.5-5.1-1-7.7.5-2.6 1.6-5.5 3.3-8.8 1.8-3.4 3.8-6.1 6-8.1s4.8-3.2 7.8-3.7 6.5-.1 10.6 1.1c4.1 1.2 8.9 3.3 14.5 6.2 5 2.7 9.1 5.2 12.2 7.5 3.2 2.3 5.6 4.6 7.3 6.7 1.7 2.2 2.7 4.4 3.1 6.5.4 2.2.2 4.5-.4 6.8-.7 2.4-1.8 5-3.2 7.7l-.6 1.2-14-7.1 1.1-2c.7-1.4 1.1-2.6 1.2-3.8 0-1.2-.4-2.4-1.2-3.6-.8-1.2-2.2-2.4-4.1-3.7-1.9-1.3-4.4-2.8-7.5-4.5-3-1.6-5.4-2.7-7.4-3.4-2-.7-3.6-1-5-1s-2.5.4-3.3 1c-.8.7-1.6 1.6-2.2 2.9-.7 1.3-1.1 2.5-1.2 3.6-.1 1.1.3 2.3 1.2 3.6.9 1.3 2.5 2.8 4.6 4.7 2.2 1.8 5.2 4.1 9.1 6.7 5.3 3.7 9.4 7 12.4 10s5.1 5.8 6.2 8.5c1.1 2.7 1.4 5.3.9 8.1-.5 2.7-1.6 5.6-3.3 8.8-1.5 2.8-3.1 5.2-4.8 7.2-1.7 2-3.6 3.4-5.7 4.3-2.1.9-4.5 1.3-7.3 1.1-2.7-.2-5.9-.9-9.5-2.2-3.6-1.3-7.8-3.3-12.5-5.8ZM743 251.9l30.1-35.5c1.8-2.1 3.4-3.9 4.8-5.6 1.4-1.7 2.7-3.3 3.9-4.8l10.9 11.8-45.7 53.8-13.5-8.8c1-1 1.9-2.1 2.9-3.2s2-2.3 3-3.6c1.1-1.3 2.3-2.7 3.6-4.2Zm17.1 15.9c1.7 1.4 3.5 2.9 5.4 4.6 1.9 1.7 3.9 3.3 6 5.1l6 5.1c1.9 1.7 3.8 3.2 5.5 4.6 1.7 1.4 3.2 2.7 4.5 3.8l-8.8 10.3-45.1-38.3 9.9-9.2 16.7 14.1Zm4.8-36.6 37.8 32.1-8.4 9.9c-.9-.8-2-1.7-3.3-2.9-1.3-1.2-2.8-2.4-4.4-3.8-1.6-1.4-3.3-2.8-5-4.2-1.7-1.4-3.3-2.8-4.9-4.2-1.6-1.4-3-2.6-4.3-3.7L756.6 241l8.4-9.8Zm25.7-.1-16.2-13.7 7.4-11.3 43.7 37.1-8.8 10.3c-1.4-1.2-3.1-2.7-5.2-4.5-2.1-1.8-4.4-3.8-6.9-6-2.5-2.1-5-4.2-7.4-6.3-2.4-2-4.6-3.9-6.6-5.6Z" class="st1"/></g></svg>